<mxfile host="app.diagrams.net" agent="Mozilla/5.0 (Windows NT 10.0; Win64; x64) AppleWebKit/537.36 (KHTML, like Gecko) Chrome/134.0.0.0 Safari/537.36" version="26.1.0">
  <diagram id="C5RBs43oDa-KdzZeNtuy" name="Page-1">
    <mxGraphModel dx="875" dy="471" grid="1" gridSize="10" guides="1" tooltips="1" connect="1" arrows="1" fold="1" page="1" pageScale="1" pageWidth="827" pageHeight="1169" math="0" shadow="0">
      <root>
        <mxCell id="WIyWlLk6GJQsqaUBKTNV-0" />
        <mxCell id="WIyWlLk6GJQsqaUBKTNV-1" parent="WIyWlLk6GJQsqaUBKTNV-0" />
        <mxCell id="bITBQVZiuk69RxbDlvkY-0" value="&amp;lt;&amp;lt;Interface&amp;gt;&amp;gt;&lt;div&gt;IUser&lt;/div&gt;" style="swimlane;fontStyle=1;align=center;verticalAlign=top;childLayout=stackLayout;horizontal=1;startSize=40;horizontalStack=0;resizeParent=1;resizeParentMax=0;resizeLast=0;collapsible=1;marginBottom=0;whiteSpace=wrap;html=1;" parent="WIyWlLk6GJQsqaUBKTNV-1" vertex="1">
          <mxGeometry x="180" y="40" width="130" height="100" as="geometry" />
        </mxCell>
        <mxCell id="bITBQVZiuk69RxbDlvkY-1" value="&lt;br&gt;&lt;div&gt;&lt;br&gt;&lt;/div&gt;" style="text;strokeColor=none;fillColor=none;align=left;verticalAlign=top;spacingLeft=4;spacingRight=4;overflow=hidden;rotatable=0;points=[[0,0.5],[1,0.5]];portConstraint=eastwest;whiteSpace=wrap;html=1;" parent="bITBQVZiuk69RxbDlvkY-0" vertex="1">
          <mxGeometry y="40" width="130" height="26" as="geometry" />
        </mxCell>
        <mxCell id="bITBQVZiuk69RxbDlvkY-2" value="" style="line;strokeWidth=1;fillColor=none;align=left;verticalAlign=middle;spacingTop=-1;spacingLeft=3;spacingRight=3;rotatable=0;labelPosition=right;points=[];portConstraint=eastwest;strokeColor=inherit;" parent="bITBQVZiuk69RxbDlvkY-0" vertex="1">
          <mxGeometry y="66" width="130" height="8" as="geometry" />
        </mxCell>
        <mxCell id="bITBQVZiuk69RxbDlvkY-3" value="&lt;div&gt;&lt;br&gt;&lt;/div&gt;&lt;div&gt;&lt;br&gt;&lt;/div&gt;" style="text;strokeColor=none;fillColor=none;align=left;verticalAlign=top;spacingLeft=4;spacingRight=4;overflow=hidden;rotatable=0;points=[[0,0.5],[1,0.5]];portConstraint=eastwest;whiteSpace=wrap;html=1;" parent="bITBQVZiuk69RxbDlvkY-0" vertex="1">
          <mxGeometry y="74" width="130" height="26" as="geometry" />
        </mxCell>
        <mxCell id="bITBQVZiuk69RxbDlvkY-8" value="Admin" style="swimlane;fontStyle=1;align=center;verticalAlign=top;childLayout=stackLayout;horizontal=1;startSize=30;horizontalStack=0;resizeParent=1;resizeParentMax=0;resizeLast=0;collapsible=1;marginBottom=0;whiteSpace=wrap;html=1;" parent="WIyWlLk6GJQsqaUBKTNV-1" vertex="1">
          <mxGeometry x="120" y="193" width="100" height="90" as="geometry" />
        </mxCell>
        <mxCell id="bITBQVZiuk69RxbDlvkY-9" value="&amp;nbsp;" style="text;strokeColor=none;fillColor=none;align=left;verticalAlign=top;spacingLeft=4;spacingRight=4;overflow=hidden;rotatable=0;points=[[0,0.5],[1,0.5]];portConstraint=eastwest;whiteSpace=wrap;html=1;" parent="bITBQVZiuk69RxbDlvkY-8" vertex="1">
          <mxGeometry y="30" width="100" height="26" as="geometry" />
        </mxCell>
        <mxCell id="bITBQVZiuk69RxbDlvkY-10" value="" style="line;strokeWidth=1;fillColor=none;align=left;verticalAlign=middle;spacingTop=-1;spacingLeft=3;spacingRight=3;rotatable=0;labelPosition=right;points=[];portConstraint=eastwest;strokeColor=inherit;" parent="bITBQVZiuk69RxbDlvkY-8" vertex="1">
          <mxGeometry y="56" width="100" height="8" as="geometry" />
        </mxCell>
        <mxCell id="bITBQVZiuk69RxbDlvkY-11" value="&amp;nbsp;" style="text;strokeColor=none;fillColor=none;align=left;verticalAlign=top;spacingLeft=4;spacingRight=4;overflow=hidden;rotatable=0;points=[[0,0.5],[1,0.5]];portConstraint=eastwest;whiteSpace=wrap;html=1;" parent="bITBQVZiuk69RxbDlvkY-8" vertex="1">
          <mxGeometry y="64" width="100" height="26" as="geometry" />
        </mxCell>
        <mxCell id="bITBQVZiuk69RxbDlvkY-12" value="RegisteredUser" style="swimlane;fontStyle=1;align=center;verticalAlign=top;childLayout=stackLayout;horizontal=1;startSize=30;horizontalStack=0;resizeParent=1;resizeParentMax=0;resizeLast=0;collapsible=1;marginBottom=0;whiteSpace=wrap;html=1;" parent="WIyWlLk6GJQsqaUBKTNV-1" vertex="1">
          <mxGeometry x="255" y="193" width="130" height="90" as="geometry" />
        </mxCell>
        <mxCell id="bITBQVZiuk69RxbDlvkY-13" value="&amp;nbsp;" style="text;strokeColor=none;fillColor=none;align=left;verticalAlign=top;spacingLeft=4;spacingRight=4;overflow=hidden;rotatable=0;points=[[0,0.5],[1,0.5]];portConstraint=eastwest;whiteSpace=wrap;html=1;" parent="bITBQVZiuk69RxbDlvkY-12" vertex="1">
          <mxGeometry y="30" width="130" height="26" as="geometry" />
        </mxCell>
        <mxCell id="bITBQVZiuk69RxbDlvkY-14" value="" style="line;strokeWidth=1;fillColor=none;align=left;verticalAlign=middle;spacingTop=-1;spacingLeft=3;spacingRight=3;rotatable=0;labelPosition=right;points=[];portConstraint=eastwest;strokeColor=inherit;" parent="bITBQVZiuk69RxbDlvkY-12" vertex="1">
          <mxGeometry y="56" width="130" height="8" as="geometry" />
        </mxCell>
        <mxCell id="bITBQVZiuk69RxbDlvkY-15" value="&amp;nbsp;" style="text;strokeColor=none;fillColor=none;align=left;verticalAlign=top;spacingLeft=4;spacingRight=4;overflow=hidden;rotatable=0;points=[[0,0.5],[1,0.5]];portConstraint=eastwest;whiteSpace=wrap;html=1;" parent="bITBQVZiuk69RxbDlvkY-12" vertex="1">
          <mxGeometry y="64" width="130" height="26" as="geometry" />
        </mxCell>
        <mxCell id="bITBQVZiuk69RxbDlvkY-16" value="&amp;lt;&amp;lt;Abstract&amp;gt;&amp;gt;&lt;div&gt;Ticket&lt;/div&gt;" style="swimlane;fontStyle=1;align=center;verticalAlign=top;childLayout=stackLayout;horizontal=1;startSize=40;horizontalStack=0;resizeParent=1;resizeParentMax=0;resizeLast=0;collapsible=1;marginBottom=0;whiteSpace=wrap;html=1;" parent="WIyWlLk6GJQsqaUBKTNV-1" vertex="1">
          <mxGeometry x="397" y="320" width="123" height="100" as="geometry" />
        </mxCell>
        <mxCell id="bITBQVZiuk69RxbDlvkY-17" value="&amp;nbsp;" style="text;strokeColor=none;fillColor=none;align=left;verticalAlign=top;spacingLeft=4;spacingRight=4;overflow=hidden;rotatable=0;points=[[0,0.5],[1,0.5]];portConstraint=eastwest;whiteSpace=wrap;html=1;" parent="bITBQVZiuk69RxbDlvkY-16" vertex="1">
          <mxGeometry y="40" width="123" height="26" as="geometry" />
        </mxCell>
        <mxCell id="bITBQVZiuk69RxbDlvkY-18" value="" style="line;strokeWidth=1;fillColor=none;align=left;verticalAlign=middle;spacingTop=-1;spacingLeft=3;spacingRight=3;rotatable=0;labelPosition=right;points=[];portConstraint=eastwest;strokeColor=inherit;" parent="bITBQVZiuk69RxbDlvkY-16" vertex="1">
          <mxGeometry y="66" width="123" height="8" as="geometry" />
        </mxCell>
        <mxCell id="bITBQVZiuk69RxbDlvkY-19" value="&amp;nbsp;" style="text;strokeColor=none;fillColor=none;align=left;verticalAlign=top;spacingLeft=4;spacingRight=4;overflow=hidden;rotatable=0;points=[[0,0.5],[1,0.5]];portConstraint=eastwest;whiteSpace=wrap;html=1;" parent="bITBQVZiuk69RxbDlvkY-16" vertex="1">
          <mxGeometry y="74" width="123" height="26" as="geometry" />
        </mxCell>
        <mxCell id="bITBQVZiuk69RxbDlvkY-24" value="Order" style="swimlane;fontStyle=1;align=center;verticalAlign=top;childLayout=stackLayout;horizontal=1;startSize=30;horizontalStack=0;resizeParent=1;resizeParentMax=0;resizeLast=0;collapsible=1;marginBottom=0;whiteSpace=wrap;html=1;" parent="WIyWlLk6GJQsqaUBKTNV-1" vertex="1">
          <mxGeometry x="500" y="190" width="100" height="90" as="geometry" />
        </mxCell>
        <mxCell id="bITBQVZiuk69RxbDlvkY-25" value="&amp;nbsp;" style="text;strokeColor=none;fillColor=none;align=left;verticalAlign=top;spacingLeft=4;spacingRight=4;overflow=hidden;rotatable=0;points=[[0,0.5],[1,0.5]];portConstraint=eastwest;whiteSpace=wrap;html=1;" parent="bITBQVZiuk69RxbDlvkY-24" vertex="1">
          <mxGeometry y="30" width="100" height="26" as="geometry" />
        </mxCell>
        <mxCell id="bITBQVZiuk69RxbDlvkY-26" value="" style="line;strokeWidth=1;fillColor=none;align=left;verticalAlign=middle;spacingTop=-1;spacingLeft=3;spacingRight=3;rotatable=0;labelPosition=right;points=[];portConstraint=eastwest;strokeColor=inherit;" parent="bITBQVZiuk69RxbDlvkY-24" vertex="1">
          <mxGeometry y="56" width="100" height="8" as="geometry" />
        </mxCell>
        <mxCell id="bITBQVZiuk69RxbDlvkY-27" value="&amp;nbsp;" style="text;strokeColor=none;fillColor=none;align=left;verticalAlign=top;spacingLeft=4;spacingRight=4;overflow=hidden;rotatable=0;points=[[0,0.5],[1,0.5]];portConstraint=eastwest;whiteSpace=wrap;html=1;" parent="bITBQVZiuk69RxbDlvkY-24" vertex="1">
          <mxGeometry y="64" width="100" height="26" as="geometry" />
        </mxCell>
        <mxCell id="bITBQVZiuk69RxbDlvkY-28" value="Event" style="swimlane;fontStyle=1;align=center;verticalAlign=top;childLayout=stackLayout;horizontal=1;startSize=30;horizontalStack=0;resizeParent=1;resizeParentMax=0;resizeLast=0;collapsible=1;marginBottom=0;whiteSpace=wrap;html=1;" parent="WIyWlLk6GJQsqaUBKTNV-1" vertex="1">
          <mxGeometry x="100" y="320" width="100" height="90" as="geometry" />
        </mxCell>
        <mxCell id="bITBQVZiuk69RxbDlvkY-29" value="&amp;nbsp;" style="text;strokeColor=none;fillColor=none;align=left;verticalAlign=top;spacingLeft=4;spacingRight=4;overflow=hidden;rotatable=0;points=[[0,0.5],[1,0.5]];portConstraint=eastwest;whiteSpace=wrap;html=1;" parent="bITBQVZiuk69RxbDlvkY-28" vertex="1">
          <mxGeometry y="30" width="100" height="26" as="geometry" />
        </mxCell>
        <mxCell id="bITBQVZiuk69RxbDlvkY-30" value="" style="line;strokeWidth=1;fillColor=none;align=left;verticalAlign=middle;spacingTop=-1;spacingLeft=3;spacingRight=3;rotatable=0;labelPosition=right;points=[];portConstraint=eastwest;strokeColor=inherit;" parent="bITBQVZiuk69RxbDlvkY-28" vertex="1">
          <mxGeometry y="56" width="100" height="8" as="geometry" />
        </mxCell>
        <mxCell id="bITBQVZiuk69RxbDlvkY-31" value="&amp;nbsp;" style="text;strokeColor=none;fillColor=none;align=left;verticalAlign=top;spacingLeft=4;spacingRight=4;overflow=hidden;rotatable=0;points=[[0,0.5],[1,0.5]];portConstraint=eastwest;whiteSpace=wrap;html=1;" parent="bITBQVZiuk69RxbDlvkY-28" vertex="1">
          <mxGeometry y="64" width="100" height="26" as="geometry" />
        </mxCell>
        <mxCell id="bITBQVZiuk69RxbDlvkY-32" value="ConcertTicket" style="swimlane;fontStyle=1;align=center;verticalAlign=top;childLayout=stackLayout;horizontal=1;startSize=30;horizontalStack=0;resizeParent=1;resizeParentMax=0;resizeLast=0;collapsible=1;marginBottom=0;whiteSpace=wrap;html=1;" parent="WIyWlLk6GJQsqaUBKTNV-1" vertex="1">
          <mxGeometry x="260" y="470" width="120" height="90" as="geometry" />
        </mxCell>
        <mxCell id="bITBQVZiuk69RxbDlvkY-33" value="&amp;nbsp;" style="text;strokeColor=none;fillColor=none;align=left;verticalAlign=top;spacingLeft=4;spacingRight=4;overflow=hidden;rotatable=0;points=[[0,0.5],[1,0.5]];portConstraint=eastwest;whiteSpace=wrap;html=1;" parent="bITBQVZiuk69RxbDlvkY-32" vertex="1">
          <mxGeometry y="30" width="120" height="26" as="geometry" />
        </mxCell>
        <mxCell id="bITBQVZiuk69RxbDlvkY-34" value="" style="line;strokeWidth=1;fillColor=none;align=left;verticalAlign=middle;spacingTop=-1;spacingLeft=3;spacingRight=3;rotatable=0;labelPosition=right;points=[];portConstraint=eastwest;strokeColor=inherit;" parent="bITBQVZiuk69RxbDlvkY-32" vertex="1">
          <mxGeometry y="56" width="120" height="8" as="geometry" />
        </mxCell>
        <mxCell id="bITBQVZiuk69RxbDlvkY-35" value="&amp;nbsp;" style="text;strokeColor=none;fillColor=none;align=left;verticalAlign=top;spacingLeft=4;spacingRight=4;overflow=hidden;rotatable=0;points=[[0,0.5],[1,0.5]];portConstraint=eastwest;whiteSpace=wrap;html=1;" parent="bITBQVZiuk69RxbDlvkY-32" vertex="1">
          <mxGeometry y="64" width="120" height="26" as="geometry" />
        </mxCell>
        <mxCell id="bITBQVZiuk69RxbDlvkY-54" value="" style="edgeStyle=orthogonalEdgeStyle;rounded=0;orthogonalLoop=1;jettySize=auto;html=1;entryX=0.504;entryY=1;entryDx=0;entryDy=0;entryPerimeter=0;endArrow=block;endFill=0;" parent="WIyWlLk6GJQsqaUBKTNV-1" source="bITBQVZiuk69RxbDlvkY-36" target="bITBQVZiuk69RxbDlvkY-19" edge="1">
          <mxGeometry relative="1" as="geometry" />
        </mxCell>
        <mxCell id="bITBQVZiuk69RxbDlvkY-36" value="StandUpTicket" style="swimlane;fontStyle=1;align=center;verticalAlign=top;childLayout=stackLayout;horizontal=1;startSize=30;horizontalStack=0;resizeParent=1;resizeParentMax=0;resizeLast=0;collapsible=1;marginBottom=0;whiteSpace=wrap;html=1;" parent="WIyWlLk6GJQsqaUBKTNV-1" vertex="1">
          <mxGeometry x="397" y="470" width="123" height="90" as="geometry" />
        </mxCell>
        <mxCell id="bITBQVZiuk69RxbDlvkY-37" value="&amp;nbsp;" style="text;strokeColor=none;fillColor=none;align=left;verticalAlign=top;spacingLeft=4;spacingRight=4;overflow=hidden;rotatable=0;points=[[0,0.5],[1,0.5]];portConstraint=eastwest;whiteSpace=wrap;html=1;" parent="bITBQVZiuk69RxbDlvkY-36" vertex="1">
          <mxGeometry y="30" width="123" height="26" as="geometry" />
        </mxCell>
        <mxCell id="bITBQVZiuk69RxbDlvkY-38" value="" style="line;strokeWidth=1;fillColor=none;align=left;verticalAlign=middle;spacingTop=-1;spacingLeft=3;spacingRight=3;rotatable=0;labelPosition=right;points=[];portConstraint=eastwest;strokeColor=inherit;" parent="bITBQVZiuk69RxbDlvkY-36" vertex="1">
          <mxGeometry y="56" width="123" height="8" as="geometry" />
        </mxCell>
        <mxCell id="bITBQVZiuk69RxbDlvkY-39" value="&amp;nbsp;" style="text;strokeColor=none;fillColor=none;align=left;verticalAlign=top;spacingLeft=4;spacingRight=4;overflow=hidden;rotatable=0;points=[[0,0.5],[1,0.5]];portConstraint=eastwest;whiteSpace=wrap;html=1;" parent="bITBQVZiuk69RxbDlvkY-36" vertex="1">
          <mxGeometry y="64" width="123" height="26" as="geometry" />
        </mxCell>
        <mxCell id="bITBQVZiuk69RxbDlvkY-40" value="TheaterTicket" style="swimlane;fontStyle=1;align=center;verticalAlign=top;childLayout=stackLayout;horizontal=1;startSize=30;horizontalStack=0;resizeParent=1;resizeParentMax=0;resizeLast=0;collapsible=1;marginBottom=0;whiteSpace=wrap;html=1;" parent="WIyWlLk6GJQsqaUBKTNV-1" vertex="1">
          <mxGeometry x="540" y="470" width="120" height="90" as="geometry" />
        </mxCell>
        <mxCell id="bITBQVZiuk69RxbDlvkY-41" value="&amp;nbsp;" style="text;strokeColor=none;fillColor=none;align=left;verticalAlign=top;spacingLeft=4;spacingRight=4;overflow=hidden;rotatable=0;points=[[0,0.5],[1,0.5]];portConstraint=eastwest;whiteSpace=wrap;html=1;" parent="bITBQVZiuk69RxbDlvkY-40" vertex="1">
          <mxGeometry y="30" width="120" height="26" as="geometry" />
        </mxCell>
        <mxCell id="bITBQVZiuk69RxbDlvkY-42" value="" style="line;strokeWidth=1;fillColor=none;align=left;verticalAlign=middle;spacingTop=-1;spacingLeft=3;spacingRight=3;rotatable=0;labelPosition=right;points=[];portConstraint=eastwest;strokeColor=inherit;" parent="bITBQVZiuk69RxbDlvkY-40" vertex="1">
          <mxGeometry y="56" width="120" height="8" as="geometry" />
        </mxCell>
        <mxCell id="bITBQVZiuk69RxbDlvkY-43" value="&amp;nbsp;" style="text;strokeColor=none;fillColor=none;align=left;verticalAlign=top;spacingLeft=4;spacingRight=4;overflow=hidden;rotatable=0;points=[[0,0.5],[1,0.5]];portConstraint=eastwest;whiteSpace=wrap;html=1;" parent="bITBQVZiuk69RxbDlvkY-40" vertex="1">
          <mxGeometry y="64" width="120" height="26" as="geometry" />
        </mxCell>
        <mxCell id="bITBQVZiuk69RxbDlvkY-55" value="" style="endArrow=none;html=1;rounded=0;exitX=0.5;exitY=0;exitDx=0;exitDy=0;" parent="WIyWlLk6GJQsqaUBKTNV-1" source="bITBQVZiuk69RxbDlvkY-40" edge="1">
          <mxGeometry width="50" height="50" relative="1" as="geometry">
            <mxPoint x="174" y="480" as="sourcePoint" />
            <mxPoint x="460" y="450" as="targetPoint" />
            <Array as="points">
              <mxPoint x="600" y="450" />
            </Array>
          </mxGeometry>
        </mxCell>
        <mxCell id="bITBQVZiuk69RxbDlvkY-56" value="" style="endArrow=none;html=1;rounded=0;exitX=0.5;exitY=0;exitDx=0;exitDy=0;" parent="WIyWlLk6GJQsqaUBKTNV-1" source="bITBQVZiuk69RxbDlvkY-32" edge="1">
          <mxGeometry width="50" height="50" relative="1" as="geometry">
            <mxPoint x="310" y="470" as="sourcePoint" />
            <mxPoint x="460" y="450" as="targetPoint" />
            <Array as="points">
              <mxPoint x="320" y="450" />
            </Array>
          </mxGeometry>
        </mxCell>
        <mxCell id="bITBQVZiuk69RxbDlvkY-59" value="" style="endArrow=block;html=1;rounded=0;endFill=0;dashed=1;entryX=0.498;entryY=1.026;entryDx=0;entryDy=0;entryPerimeter=0;exitX=0.5;exitY=0;exitDx=0;exitDy=0;" parent="WIyWlLk6GJQsqaUBKTNV-1" source="bITBQVZiuk69RxbDlvkY-12" target="bITBQVZiuk69RxbDlvkY-3" edge="1">
          <mxGeometry width="50" height="50" relative="1" as="geometry">
            <mxPoint x="245" y="170" as="sourcePoint" />
            <mxPoint x="240" y="150" as="targetPoint" />
            <Array as="points">
              <mxPoint x="320" y="170" />
              <mxPoint x="245" y="170" />
            </Array>
          </mxGeometry>
        </mxCell>
        <mxCell id="bITBQVZiuk69RxbDlvkY-62" value="" style="endArrow=open;html=1;rounded=0;entryX=-0.007;entryY=0.222;entryDx=0;entryDy=0;entryPerimeter=0;endFill=0;exitX=1;exitY=0.194;exitDx=0;exitDy=0;exitPerimeter=0;" parent="WIyWlLk6GJQsqaUBKTNV-1" target="bITBQVZiuk69RxbDlvkY-24" edge="1" source="bITBQVZiuk69RxbDlvkY-12">
          <mxGeometry width="50" height="50" relative="1" as="geometry">
            <mxPoint x="430" y="210" as="sourcePoint" />
            <mxPoint x="390" y="290" as="targetPoint" />
          </mxGeometry>
        </mxCell>
        <mxCell id="bITBQVZiuk69RxbDlvkY-63" value="+ Orders&lt;div&gt;0...*&lt;/div&gt;" style="text;html=1;align=left;verticalAlign=middle;whiteSpace=wrap;rounded=0;fontSize=8;" parent="WIyWlLk6GJQsqaUBKTNV-1" vertex="1">
          <mxGeometry x="393" y="190" width="40" height="20" as="geometry" />
        </mxCell>
        <mxCell id="bITBQVZiuk69RxbDlvkY-64" value="&amp;lt;&amp;lt;Enumeration&amp;gt;&amp;gt;&lt;div&gt;TypeEvent&lt;/div&gt;" style="swimlane;fontStyle=1;align=center;verticalAlign=top;childLayout=stackLayout;horizontal=1;startSize=40;horizontalStack=0;resizeParent=1;resizeParentMax=0;resizeLast=0;collapsible=1;marginBottom=0;whiteSpace=wrap;html=1;" parent="WIyWlLk6GJQsqaUBKTNV-1" vertex="1">
          <mxGeometry x="60" y="460" width="140" height="100" as="geometry" />
        </mxCell>
        <mxCell id="bITBQVZiuk69RxbDlvkY-65" value="&amp;nbsp;" style="text;strokeColor=none;fillColor=none;align=left;verticalAlign=top;spacingLeft=4;spacingRight=4;overflow=hidden;rotatable=0;points=[[0,0.5],[1,0.5]];portConstraint=eastwest;whiteSpace=wrap;html=1;" parent="bITBQVZiuk69RxbDlvkY-64" vertex="1">
          <mxGeometry y="40" width="140" height="26" as="geometry" />
        </mxCell>
        <mxCell id="bITBQVZiuk69RxbDlvkY-66" value="" style="line;strokeWidth=1;fillColor=none;align=left;verticalAlign=middle;spacingTop=-1;spacingLeft=3;spacingRight=3;rotatable=0;labelPosition=right;points=[];portConstraint=eastwest;strokeColor=inherit;" parent="bITBQVZiuk69RxbDlvkY-64" vertex="1">
          <mxGeometry y="66" width="140" height="8" as="geometry" />
        </mxCell>
        <mxCell id="bITBQVZiuk69RxbDlvkY-67" value="&amp;nbsp;" style="text;strokeColor=none;fillColor=none;align=left;verticalAlign=top;spacingLeft=4;spacingRight=4;overflow=hidden;rotatable=0;points=[[0,0.5],[1,0.5]];portConstraint=eastwest;whiteSpace=wrap;html=1;" parent="bITBQVZiuk69RxbDlvkY-64" vertex="1">
          <mxGeometry y="74" width="140" height="26" as="geometry" />
        </mxCell>
        <mxCell id="bITBQVZiuk69RxbDlvkY-69" value="" style="endArrow=open;html=1;rounded=0;exitX=0.598;exitY=0.997;exitDx=0;exitDy=0;exitPerimeter=0;entryX=0.713;entryY=-0.007;entryDx=0;entryDy=0;entryPerimeter=0;endFill=0;dashed=1;" parent="WIyWlLk6GJQsqaUBKTNV-1" source="bITBQVZiuk69RxbDlvkY-31" target="bITBQVZiuk69RxbDlvkY-64" edge="1">
          <mxGeometry width="50" height="50" relative="1" as="geometry">
            <mxPoint x="240" y="380" as="sourcePoint" />
            <mxPoint x="120" y="430" as="targetPoint" />
          </mxGeometry>
        </mxCell>
        <mxCell id="bITBQVZiuk69RxbDlvkY-70" value="" style="endArrow=diamondThin;html=1;rounded=0;endFill=1;exitX=-0.002;exitY=0.192;exitDx=0;exitDy=0;exitPerimeter=0;entryX=1.005;entryY=0.212;entryDx=0;entryDy=0;entryPerimeter=0;" parent="WIyWlLk6GJQsqaUBKTNV-1" source="bITBQVZiuk69RxbDlvkY-16" target="bITBQVZiuk69RxbDlvkY-28" edge="1">
          <mxGeometry width="50" height="50" relative="1" as="geometry">
            <mxPoint x="200" y="340" as="sourcePoint" />
            <mxPoint x="220" y="350" as="targetPoint" />
          </mxGeometry>
        </mxCell>
        <mxCell id="bITBQVZiuk69RxbDlvkY-71" value="+ Tickets&lt;div&gt;0...*&lt;/div&gt;" style="text;html=1;align=left;verticalAlign=middle;whiteSpace=wrap;rounded=0;fontSize=8;" parent="WIyWlLk6GJQsqaUBKTNV-1" vertex="1">
          <mxGeometry x="200" y="346" width="40" height="20" as="geometry" />
        </mxCell>
        <mxCell id="bITBQVZiuk69RxbDlvkY-72" value="" style="endArrow=open;html=1;rounded=0;exitX=0.601;exitY=0.995;exitDx=0;exitDy=0;exitPerimeter=0;entryX=0.5;entryY=0;entryDx=0;entryDy=0;endFill=0;" parent="WIyWlLk6GJQsqaUBKTNV-1" source="bITBQVZiuk69RxbDlvkY-27" target="bITBQVZiuk69RxbDlvkY-16" edge="1">
          <mxGeometry width="50" height="50" relative="1" as="geometry">
            <mxPoint x="640" y="220" as="sourcePoint" />
            <mxPoint x="550" y="340" as="targetPoint" />
            <Array as="points">
              <mxPoint x="560" y="300" />
              <mxPoint x="459" y="300" />
            </Array>
          </mxGeometry>
        </mxCell>
        <mxCell id="bITBQVZiuk69RxbDlvkY-75" value="0...1" style="text;html=1;align=left;verticalAlign=middle;whiteSpace=wrap;rounded=0;fontSize=8;" parent="WIyWlLk6GJQsqaUBKTNV-1" vertex="1">
          <mxGeometry x="562" y="283" width="20" height="12" as="geometry" />
        </mxCell>
        <mxCell id="bITBQVZiuk69RxbDlvkY-77" value="0...1" style="text;html=1;align=left;verticalAlign=middle;whiteSpace=wrap;rounded=0;fontSize=8;" parent="WIyWlLk6GJQsqaUBKTNV-1" vertex="1">
          <mxGeometry x="480" y="220" width="20" height="12" as="geometry" />
        </mxCell>
        <mxCell id="bITBQVZiuk69RxbDlvkY-78" value="" style="endArrow=diamondThin;html=1;rounded=0;endFill=0;entryX=-0.004;entryY=0.764;entryDx=0;entryDy=0;entryPerimeter=0;exitX=1.005;exitY=0.111;exitDx=0;exitDy=0;exitPerimeter=0;" parent="WIyWlLk6GJQsqaUBKTNV-1" source="bITBQVZiuk69RxbDlvkY-28" target="bITBQVZiuk69RxbDlvkY-25" edge="1">
          <mxGeometry width="50" height="50" relative="1" as="geometry">
            <mxPoint x="350" y="370" as="sourcePoint" />
            <mxPoint x="400" y="320" as="targetPoint" />
            <Array as="points">
              <mxPoint x="380" y="330" />
              <mxPoint x="380" y="310" />
              <mxPoint x="440" y="310" />
              <mxPoint x="440" y="240" />
            </Array>
          </mxGeometry>
        </mxCell>
        <mxCell id="bITBQVZiuk69RxbDlvkY-79" value="&amp;lt;&amp;lt;Interface&amp;gt;&amp;gt;&lt;div&gt;&lt;strong data-end=&quot;160&quot; data-start=&quot;142&quot;&gt;IComparable&lt;/strong&gt;&lt;/div&gt;" style="swimlane;fontStyle=1;align=center;verticalAlign=top;childLayout=stackLayout;horizontal=1;startSize=40;horizontalStack=0;resizeParent=1;resizeParentMax=0;resizeLast=0;collapsible=1;marginBottom=0;whiteSpace=wrap;html=1;" parent="WIyWlLk6GJQsqaUBKTNV-1" vertex="1">
          <mxGeometry x="600" y="315" width="120" height="100" as="geometry" />
        </mxCell>
        <mxCell id="bITBQVZiuk69RxbDlvkY-80" value="&lt;br&gt;&lt;div&gt;&lt;br&gt;&lt;/div&gt;" style="text;strokeColor=none;fillColor=none;align=left;verticalAlign=top;spacingLeft=4;spacingRight=4;overflow=hidden;rotatable=0;points=[[0,0.5],[1,0.5]];portConstraint=eastwest;whiteSpace=wrap;html=1;" parent="bITBQVZiuk69RxbDlvkY-79" vertex="1">
          <mxGeometry y="40" width="120" height="26" as="geometry" />
        </mxCell>
        <mxCell id="bITBQVZiuk69RxbDlvkY-81" value="" style="line;strokeWidth=1;fillColor=none;align=left;verticalAlign=middle;spacingTop=-1;spacingLeft=3;spacingRight=3;rotatable=0;labelPosition=right;points=[];portConstraint=eastwest;strokeColor=inherit;" parent="bITBQVZiuk69RxbDlvkY-79" vertex="1">
          <mxGeometry y="66" width="120" height="8" as="geometry" />
        </mxCell>
        <mxCell id="bITBQVZiuk69RxbDlvkY-82" value="&lt;div&gt;&lt;br&gt;&lt;/div&gt;&lt;div&gt;&lt;br&gt;&lt;/div&gt;" style="text;strokeColor=none;fillColor=none;align=left;verticalAlign=top;spacingLeft=4;spacingRight=4;overflow=hidden;rotatable=0;points=[[0,0.5],[1,0.5]];portConstraint=eastwest;whiteSpace=wrap;html=1;" parent="bITBQVZiuk69RxbDlvkY-79" vertex="1">
          <mxGeometry y="74" width="120" height="26" as="geometry" />
        </mxCell>
        <mxCell id="bITBQVZiuk69RxbDlvkY-83" value="&amp;lt;&amp;lt;Interface&amp;gt;&amp;gt;&lt;div&gt;&lt;strong data-end=&quot;160&quot; data-start=&quot;142&quot;&gt;IEnumerable&lt;/strong&gt;&lt;/div&gt;" style="swimlane;fontStyle=1;align=center;verticalAlign=top;childLayout=stackLayout;horizontal=1;startSize=40;horizontalStack=0;resizeParent=1;resizeParentMax=0;resizeLast=0;collapsible=1;marginBottom=0;whiteSpace=wrap;html=1;" parent="WIyWlLk6GJQsqaUBKTNV-1" vertex="1">
          <mxGeometry x="330" y="40" width="110" height="100" as="geometry" />
        </mxCell>
        <mxCell id="bITBQVZiuk69RxbDlvkY-84" value="&lt;br&gt;&lt;div&gt;&lt;br&gt;&lt;/div&gt;" style="text;strokeColor=none;fillColor=none;align=left;verticalAlign=top;spacingLeft=4;spacingRight=4;overflow=hidden;rotatable=0;points=[[0,0.5],[1,0.5]];portConstraint=eastwest;whiteSpace=wrap;html=1;" parent="bITBQVZiuk69RxbDlvkY-83" vertex="1">
          <mxGeometry y="40" width="110" height="26" as="geometry" />
        </mxCell>
        <mxCell id="bITBQVZiuk69RxbDlvkY-85" value="" style="line;strokeWidth=1;fillColor=none;align=left;verticalAlign=middle;spacingTop=-1;spacingLeft=3;spacingRight=3;rotatable=0;labelPosition=right;points=[];portConstraint=eastwest;strokeColor=inherit;" parent="bITBQVZiuk69RxbDlvkY-83" vertex="1">
          <mxGeometry y="66" width="110" height="8" as="geometry" />
        </mxCell>
        <mxCell id="bITBQVZiuk69RxbDlvkY-86" value="&lt;div&gt;&lt;br&gt;&lt;/div&gt;&lt;div&gt;&lt;br&gt;&lt;/div&gt;" style="text;strokeColor=none;fillColor=none;align=left;verticalAlign=top;spacingLeft=4;spacingRight=4;overflow=hidden;rotatable=0;points=[[0,0.5],[1,0.5]];portConstraint=eastwest;whiteSpace=wrap;html=1;" parent="bITBQVZiuk69RxbDlvkY-83" vertex="1">
          <mxGeometry y="74" width="110" height="26" as="geometry" />
        </mxCell>
        <mxCell id="bITBQVZiuk69RxbDlvkY-87" value="" style="endArrow=block;html=1;rounded=0;endFill=0;dashed=1;entryX=0.502;entryY=1.017;entryDx=0;entryDy=0;entryPerimeter=0;" parent="WIyWlLk6GJQsqaUBKTNV-1" target="bITBQVZiuk69RxbDlvkY-86" edge="1">
          <mxGeometry width="50" height="50" relative="1" as="geometry">
            <mxPoint x="325" y="180" as="sourcePoint" />
            <mxPoint x="304" y="150" as="targetPoint" />
            <Array as="points">
              <mxPoint x="385" y="180" />
            </Array>
          </mxGeometry>
        </mxCell>
        <mxCell id="bITBQVZiuk69RxbDlvkY-88" value="" style="endArrow=block;html=1;rounded=0;endFill=0;dashed=1;entryX=0.5;entryY=0;entryDx=0;entryDy=0;" parent="WIyWlLk6GJQsqaUBKTNV-1" target="bITBQVZiuk69RxbDlvkY-83" edge="1">
          <mxGeometry width="50" height="50" relative="1" as="geometry">
            <mxPoint x="80" y="360" as="sourcePoint" />
            <mxPoint x="80" y="320" as="targetPoint" />
            <Array as="points">
              <mxPoint x="100" y="360" />
              <mxPoint x="80" y="360" />
              <mxPoint x="80" y="20" />
              <mxPoint x="385" y="20" />
            </Array>
          </mxGeometry>
        </mxCell>
        <mxCell id="bITBQVZiuk69RxbDlvkY-89" value="" style="endArrow=block;html=1;rounded=0;endFill=0;dashed=1;entryX=0.5;entryY=0;entryDx=0;entryDy=0;" parent="WIyWlLk6GJQsqaUBKTNV-1" target="bITBQVZiuk69RxbDlvkY-79" edge="1">
          <mxGeometry width="50" height="50" relative="1" as="geometry">
            <mxPoint x="600" y="240" as="sourcePoint" />
            <mxPoint x="460" y="150" as="targetPoint" />
            <Array as="points">
              <mxPoint x="660" y="240" />
            </Array>
          </mxGeometry>
        </mxCell>
        <mxCell id="bITBQVZiuk69RxbDlvkY-90" value="" style="endArrow=block;html=1;rounded=0;endFill=0;dashed=1;entryX=0.668;entryY=0.98;entryDx=0;entryDy=0;entryPerimeter=0;" parent="WIyWlLk6GJQsqaUBKTNV-1" target="bITBQVZiuk69RxbDlvkY-82" edge="1">
          <mxGeometry width="50" height="50" relative="1" as="geometry">
            <mxPoint x="200" y="385" as="sourcePoint" />
            <mxPoint x="260" y="460" as="targetPoint" />
            <Array as="points">
              <mxPoint x="240" y="385" />
              <mxPoint x="240" y="570" />
              <mxPoint x="680" y="570" />
              <mxPoint x="680" y="460" />
            </Array>
          </mxGeometry>
        </mxCell>
        <mxCell id="bITBQVZiuk69RxbDlvkY-91" value="" style="endArrow=block;html=1;rounded=0;endFill=0;dashed=1;exitX=1.001;exitY=0.202;exitDx=0;exitDy=0;exitPerimeter=0;entryX=0;entryY=0.25;entryDx=0;entryDy=0;" parent="WIyWlLk6GJQsqaUBKTNV-1" source="bITBQVZiuk69RxbDlvkY-16" target="bITBQVZiuk69RxbDlvkY-79" edge="1">
          <mxGeometry width="50" height="50" relative="1" as="geometry">
            <mxPoint x="610" y="250" as="sourcePoint" />
            <mxPoint x="570" y="350" as="targetPoint" />
            <Array as="points" />
          </mxGeometry>
        </mxCell>
      </root>
    </mxGraphModel>
  </diagram>
</mxfile>
